<svg version="1.1" id="Layer_1" xmlns="http://www.w3.org/2000/svg" xmlns:xlink="http://www.w3.org/1999/xlink" x="0px" y="0px"
	 width="100%" viewBox="0 0 225 225" enable-background="new 0 0 225 225" xml:space="preserve">
<path fill="#FEFEFE" opacity="1.000000" stroke="none" 
	d="
M226.000000,75.000000 
	C226.000000,125.260818 226.000000,175.521637 226.000000,226.000000 
	C175.312653,226.000000 124.624985,226.000000 73.631996,225.629913 
	C87.911011,223.686203 100.296051,217.476456 110.611237,207.190964 
	C142.684387,175.210114 174.670197,143.141708 206.725906,111.143333 
	C214.898911,102.984940 220.497650,93.365608 223.722641,82.313568 
	C224.437759,79.862869 225.238617,77.437195 226.000000,75.000000 
z"/>
<path fill="#FEFEFE" opacity="1.000000" stroke="none" 
	d="
M1.000000,152.000000 
	C1.000000,101.739426 1.000000,51.478844 1.000000,1.000000 
	C51.354019,1.000000 101.708351,1.000000 152.375214,1.364591 
	C139.469269,3.536909 127.675781,8.723578 118.228271,18.089758 
	C84.753799,51.276070 51.492069,84.677345 18.221352,118.068535 
	C10.678489,125.638710 6.030957,134.943527 3.110366,145.157623 
	C2.454327,147.451965 1.705898,149.719910 1.000000,152.000000 
z"/>
<path fill="#040404" opacity="1.000000" stroke="none" 
	d="
M1.000000,152.468414 
	C1.705898,149.719910 2.454327,147.451965 3.110366,145.157623 
	C6.030957,134.943527 10.678489,125.638710 18.221352,118.068535 
	C51.492069,84.677345 84.753799,51.276070 118.228271,18.089758 
	C127.675781,8.723578 139.469269,3.536909 152.843872,1.364591 
	C158.354935,1.000000 163.709854,1.000000 169.670044,1.375665 
	C195.880157,4.649708 218.309052,24.853334 224.110382,50.183762 
	C224.563660,52.162952 225.362030,54.063110 226.000000,56.000000 
	C226.000000,62.021152 226.000000,68.042305 226.000000,74.531731 
	C225.238617,77.437195 224.437759,79.862869 223.722641,82.313568 
	C220.497650,93.365608 214.898911,102.984940 206.725906,111.143333 
	C174.670197,143.141708 142.684387,175.210114 110.611237,207.190964 
	C100.296051,217.476456 87.911011,223.686203 73.163338,225.629913 
	C67.311958,226.000000 61.623920,226.000000 55.337715,225.641159 
	C54.258572,225.161163 53.778847,225.034729 53.296417,224.919647 
	C26.045774,218.419724 8.932927,201.683884 2.231406,174.401443 
	C2.022612,173.551437 1.419358,172.798294 1.000000,172.000000 
	C1.000000,165.645599 1.000000,159.291214 1.000000,152.468414 
M199.448639,105.939568 
	C212.987961,92.781120 219.247849,76.686234 216.543472,58.070141 
	C213.284180,35.634403 200.546677,19.890545 178.878067,12.794277 
	C157.420395,5.767087 138.195679,10.860600 122.026749,26.642958 
	C110.703644,37.695354 99.664001,49.037636 88.408806,60.160439 
	C84.761917,63.764435 80.833023,67.083069 77.737526,69.892838 
	C104.512268,96.712204 130.449097,122.692245 156.569717,148.856400 
	C170.476944,134.935974 184.711090,120.688309 199.448639,105.939568 
M107.941200,197.443542 
	C121.787071,183.597000 135.632935,169.750458 149.180954,156.201782 
	C122.858040,129.852173 96.986320,103.954193 72.137909,79.080574 
	C55.360489,95.196030 36.933132,110.167503 21.877947,127.987885 
	C-1.540674,155.707825 10.224669,198.656876 43.355461,212.618805 
	C64.340492,221.462280 89.539467,217.680954 107.941200,197.443542 
z"/>
<path fill="#FDFDFD" opacity="1.000000" stroke="none" 
	d="
M226.000000,55.531342 
	C225.362030,54.063110 224.563660,52.162952 224.110382,50.183762 
	C218.309052,24.853334 195.880157,4.649708 170.137634,1.375665 
	C188.592789,1.000000 207.185577,1.000000 226.000000,1.000000 
	C226.000000,19.020288 226.000000,37.041485 226.000000,55.531342 
z"/>
<path fill="#FDFDFD" opacity="1.000000" stroke="none" 
	d="
M1.000000,172.468658 
	C1.419358,172.798294 2.022612,173.551437 2.231406,174.401443 
	C8.932927,201.683884 26.045774,218.419724 53.296417,224.919647 
	C53.778847,225.034729 54.258572,225.161163 54.869778,225.641159 
	C37.073227,226.000000 19.146450,226.000000 1.000000,226.000000 
	C1.000000,208.313049 1.000000,190.625183 1.000000,172.468658 
z"/>
<path fill="#FEFEFE" opacity="1.000000" stroke="none" 
	d="
M199.196930,106.190109 
	C184.711090,120.688309 170.476944,134.935974 156.569717,148.856400 
	C130.449097,122.692245 104.512268,96.712204 77.737526,69.892838 
	C80.833023,67.083069 84.761917,63.764435 88.408806,60.160439 
	C99.664001,49.037636 110.703644,37.695354 122.026749,26.642958 
	C138.195679,10.860600 157.420395,5.767087 178.878067,12.794277 
	C200.546677,19.890545 213.284180,35.634403 216.543472,58.070141 
	C219.247849,76.686234 212.987961,92.781120 199.196930,106.190109 
z"/>
<path fill="#FEFEFE" opacity="1.000000" stroke="none" 
	d="
M107.691032,197.693298 
	C89.539467,217.680954 64.340492,221.462280 43.355461,212.618805 
	C10.224669,198.656876 -1.540674,155.707825 21.877947,127.987885 
	C36.933132,110.167503 55.360489,95.196030 72.137909,79.080574 
	C96.986320,103.954193 122.858040,129.852173 149.180954,156.201782 
	C135.632935,169.750458 121.787071,183.597000 107.691032,197.693298 
M73.097862,86.524796 
	C71.346939,87.151825 69.132881,87.302185 67.918831,88.481773 
	C58.721363,97.418144 49.735203,106.571609 40.646534,115.620605 
	C38.375412,117.881813 37.965141,120.325462 40.266197,122.562820 
	C42.475780,124.711227 44.793285,123.890129 46.808167,121.870239 
	C55.983589,112.671982 65.188637,103.503197 74.341614,94.282692 
	C76.937714,91.667419 77.086655,89.087822 73.097862,86.524796 
M33.201519,126.302734 
	C30.888744,127.570435 28.305099,128.537857 26.399431,130.256866 
	C25.659870,130.923996 25.987629,133.551910 26.691818,134.799866 
	C27.271812,135.827713 29.549425,136.989578 30.332394,136.600021 
	C32.428852,135.557007 34.762409,134.030609 35.744747,132.067276 
	C36.336372,130.884857 34.578503,128.526871 33.201519,126.302734 
z"/>
<path fill="#020202" opacity="1.000000" stroke="none" 
	d="
M73.443451,86.681168 
	C77.086655,89.087822 76.937714,91.667419 74.341614,94.282692 
	C65.188637,103.503197 55.983589,112.671982 46.808167,121.870239 
	C44.793285,123.890129 42.475780,124.711227 40.266197,122.562820 
	C37.965141,120.325462 38.375412,117.881813 40.646534,115.620605 
	C49.735203,106.571609 58.721363,97.418144 67.918831,88.481773 
	C69.132881,87.302185 71.346939,87.151825 73.443451,86.681168 
z"/>
<path fill="#070707" opacity="1.000000" stroke="none" 
	d="
M33.538979,126.499939 
	C34.578503,128.526871 36.336372,130.884857 35.744747,132.067276 
	C34.762409,134.030609 32.428852,135.557007 30.332394,136.600021 
	C29.549425,136.989578 27.271812,135.827713 26.691818,134.799866 
	C25.987629,133.551910 25.659870,130.923996 26.399431,130.256866 
	C28.305099,128.537857 30.888744,127.570435 33.538979,126.499939 
z"/>
</svg>